<?xml version="1.0" standalone="no"?><!DOCTYPE svg PUBLIC "-//W3C//DTD SVG 1.1//EN" "http://www.w3.org/Graphics/SVG/1.1/DTD/svg11.dtd"><svg t="1776321570924" class="icon" viewBox="0 0 1024 1024" version="1.1" xmlns="http://www.w3.org/2000/svg" p-id="1780" xmlns:xlink="http://www.w3.org/1999/xlink" width="200" height="200"><path d="M899.5584 376.70912H122.67008c-19.48672 0-35.2768 17.86368-35.2768 39.71072v118.83008c0 21.84192 15.79008 39.7056 35.2768 39.7056h70.5536c-19.4816 0-35.2768 17.86368-35.2768 39.71072v356.6336c0 21.8368 15.7952 39.7056 35.2768 39.7056h635.776c19.4816 0 35.2768-17.86368 35.2768-39.7056v-356.7872c0-21.84704-15.7952-39.55712-35.2768-39.55712h70.5536c19.48672 0 35.28704-17.8688 35.28704-39.71072V416.4096c0-21.84704-15.80032-39.7056-35.28192-39.7056zM440.4736 416.41984h141.2608v158.5408h-141.2608V416.41984z m0 554.87488v-356.77696h141.2608v356.62848h-141.2608v0.1536zM296.1152 331.83744h156.76416c5.61152 3.0976 11.81184 5.31456 18.74432 5.31456h79.26784c6.94272 0 12.98944-2.21696 18.74432-5.31456h175.96416l1.024-1.03424c60.97408-10.92096 274.57024-105.24672 100.38272-279.58272-51.6608-51.6608-94.47424-36.4544-120.75008-3.53792-55.64928 69.81632-117.49888 146.28352-147.0208 182.8864-7.23456-7.3728-17.26976-12.09856-28.3392-12.09856H471.6288c-7.82336 0-14.6176 2.80064-20.81792 6.78912l-3.98336-3.10272a33711.2576 33711.2576 0 0 1-140.2368-174.47424c-26.12224-32.9216-69.07904-48.128-120.74496 3.53792C0 236.92288 255.0784 331.83232 296.1152 331.83232z" fill="#272636" p-id="1781"></path></svg>