<?xml version="1.0" standalone="no"?><!DOCTYPE svg PUBLIC "-//W3C//DTD SVG 1.1//EN" "http://www.w3.org/Graphics/SVG/1.1/DTD/svg11.dtd"><svg t="1776321846022" class="icon" viewBox="0 0 1024 1024" version="1.1" xmlns="http://www.w3.org/2000/svg" p-id="3761" xmlns:xlink="http://www.w3.org/1999/xlink" width="200" height="200"><path d="M268.190476 243.809524v73.142857H238.567619L200.655238 828.952381h622.689524l-37.936762-512h-29.622857v-73.142857h29.622857a73.142857 73.142857 0 0 1 72.94781 67.730286l37.91238 512A73.142857 73.142857 0 0 1 823.344762 902.095238H200.655238a73.142857 73.142857 0 0 1-72.923428-78.555428l37.91238-512A73.142857 73.142857 0 0 1 238.592 243.809524h29.574095z m378.831238 268.190476l68.924953 24.478476C643.608381 740.10819 370.639238 740.10819 316.952381 533.455238l70.802286-18.383238c34.986667 134.680381 210.358857 134.680381 259.267047-3.047619z m-134.095238-426.666667a194.998857 194.998857 0 0 1 194.998857 194.998857v98.816h-73.142857V316.952381h-243.736381l0.024381 62.171429h-73.142857v-98.79162A194.998857 194.998857 0 0 1 512.926476 85.333333z m0 73.142857a121.904762 121.904762 0 0 0-116.297143 85.333334h232.594286a121.904762 121.904762 0 0 0-116.297143-85.333334z" p-id="3762"></path></svg>